HIERARCHY
ROOT pelvis
{
	OFFSET 0.00 0.00 0.00
	CHANNELS 6 Xposition Yposition Zposition Xrotation Yrotation Zrotation
	JOINT lfemur
	{
		OFFSET 0.00000 3.26371 0.00000
		CHANNELS 3 Xrotation Yrotation Zrotation
		JOINT ltibia
		{
			OFFSET 0.00000 0.00000 -17.39272
			CHANNELS 3 Xrotation Yrotation Zrotation
			JOINT lfoot
			{
				OFFSET 0.00000 0.00000 -17.72520
				CHANNELS 3 Xrotation Yrotation Zrotation
				JOINT ltoes
				{
					OFFSET 4.21806 0.00000 0.00000
					CHANNELS 3 Xrotation Yrotation Zrotation
				}
			}
		}
	}
	JOINT rfemur
	{
		OFFSET 0.00000 -3.26371 0.00000
		CHANNELS 3 Xrotation Yrotation Zrotation
		JOINT rtibia
		{
			OFFSET 0.00000 0.00000 -17.39272
			CHANNELS 3 Xrotation Yrotation Zrotation
			JOINT rfoot
			{
				OFFSET 0.00000 0.00000 -17.72520
				CHANNELS 3 Xrotation Yrotation Zrotation
				JOINT rtoes
				{
					OFFSET 4.21806 0.00000 0.00000
					CHANNELS 3 Xrotation Yrotation Zrotation
				}
			}
		}
	}
	JOINT thorax
	{
		OFFSET -1.96850 0.00000 6.16593
		CHANNELS 6 Xposition Yposition Zposition Xrotation Yrotation Zrotation
		JOINT head
		{
			OFFSET 0.00000 0.00000 18.21355
			CHANNELS 6 Xposition Yposition Zposition Xrotation Yrotation Zrotation
		}
		JOINT lclavicle
		{
			OFFSET 0.00000 0.00000 15.13875
			CHANNELS 3 Xrotation Yrotation Zrotation
			JOINT lhumerus
			{
				OFFSET 0.00000 7.18963 -1.52650
				CHANNELS 3 Xrotation Yrotation Zrotation
				JOINT lradius
				{
					OFFSET 0.00000 0.00000 -10.12096
					CHANNELS 3 Xrotation Yrotation Zrotation
					JOINT lhand
					{
						OFFSET 0.00000 0.00000 -10.45726
						CHANNELS 3 Xrotation Yrotation Zrotation
					}
				}
			}
		}
		JOINT rclavicle
		{
			OFFSET 0.00000 0.00000 15.13875
			CHANNELS 3 Xrotation Yrotation Zrotation
			JOINT rhumerus
			{
				OFFSET 0.00000 -7.18963 -1.52650
				CHANNELS 3 Xrotation Yrotation Zrotation
				JOINT rradius
				{
					OFFSET 0.00000 0.00000 -10.12096
					CHANNELS 3 Xrotation Yrotation Zrotation
					JOINT rhand
					{
						OFFSET 0.00000 0.00000 -10.45726
						CHANNELS 3 Xrotation Yrotation Zrotation
					}
				}
			}
		}
	}
}
MOTION
Frames: 11
Frame Time: 0.008333
 8.2460 -7.0240 33.3435 -1.7521 -3.7938 -2.4742 2.9139 -27.0241 19.3811 -0.0000 54.3849 0.0000 -0.0000 -8.2099 11.6055 0.0000 -18.5734 -0.0000 -16.3273 -4.4811 -13.1200 -0.0000 78.1132 0.0000 0.0000 15.3620 -4.2813 0.0000 -45.8452 -0.0000 5.5875 -6.4133 39.0444 -4.1633 4.6890 20.5358 5.9231 -4.2227 57.2544 2.7752 0.6050 -12.3038 -17.5010 0.0000 -4.0494 50.7106 12.2833 16.2438 180.0000 -77.3466 -174.9966 -2.8981 -2.7589 -0.0000 10.9834 -0.0000 6.7886 -61.9888 -19.6071 -4.2322 180.0000 -78.3149 -148.5979 -1.8878 3.8518 -0.0000
 8.5690 -6.9789 33.6408 -2.4811 -5.0021 -1.0968 2.9237 -24.4994 18.4989 -0.0000 52.6984 0.0000 -0.0000 -7.7521 10.9226 0.0000 -18.6925 -0.0000 -16.6729 -6.6157 -13.9485 -0.0000 80.2659 0.0000 0.0000 14.0928 -5.7657 0.0000 -44.9469 -0.0000 5.7626 -6.3583 39.2607 -3.6197 5.7086 20.1223 6.0112 -4.0477 57.4563 3.2107 0.9055 -13.0255 -17.2642 0.0000 -3.9255 51.1887 11.9584 16.2268 180.0000 -77.9483 -175.7790 -2.7577 -3.2906 0.0000 10.8806 -0.0000 6.3539 -62.0433 -18.1759 -4.2459 180.0000 -79.0717 -148.1951 -2.5054 3.8512 0.0000
 8.8927 -6.9247 33.9474 -3.4351 -6.3179 0.6900 3.0444 -21.9502 17.0842 -0.0000 50.9529 0.0000 0.0000 -7.2137 10.3773 0.0000 -18.9421 -0.0000 -16.9187 -8.4795 -14.9882 -0.0000 82.0642 0.0000 0.0000 12.7767 -6.4477 0.0000 -44.0219 -0.0000 5.9308 -6.2969 39.4737 -2.7087 6.7972 19.0362 6.0870 -3.8768 57.6577 3.6062 1.3061 -13.6126 -17.1345 0.0000 -3.7948 51.9999 11.8043 16.1939 180.0000 -78.4413 -176.5146 -3.4534 -4.1989 0.0000 10.9019 -0.0000 6.0255 -62.2712 -16.6667 -4.1672 -180.0000 -79.9092 -148.0409 -2.6652 4.1933 0.0000
 9.1874 -6.8748 34.2385 -4.2107 -7.5249 2.1243 3.3018 -19.5426 16.1464 -0.0000 49.1968 0.0000 0.0000 -6.7258 9.8390 0.0000 -19.1427 -0.0000 -17.3147 -10.8593 -15.4029 -0.0000 83.9724 0.0000 0.0000 11.7293 -6.3729 0.0000 -43.8099 -0.0000 6.0780 -6.2328 39.6816 -1.9337 7.7757 18.4303 6.1571 -3.7161 57.8541 3.9736 1.6434 -14.3021 -16.9297 0.0000 -3.8076 52.4747 11.1208 16.3040 180.0000 -79.0333 -176.7961 -4.2925 -4.8592 -0.0000 10.7892 -0.0000 5.4530 -62.2478 -15.0932 -4.0691 180.0000 -80.7526 -147.8087 -2.7746 4.6562 0.0000
 9.4750 -6.8101 34.5245 -5.0924 -8.7722 3.9925 3.5617 -17.2602 14.5845 -0.0000 47.4928 0.0000 0.0000 -5.9891 9.4206 0.0000 -19.7370 -0.0000 -17.8539 -13.0559 -16.0590 -0.0000 85.7236 0.0000 0.0000 10.6488 -5.1603 0.0000 -43.5145 -0.0000 6.1579 -6.1799 39.8869 -0.9642 8.9414 17.1639 6.2081 -3.5624 58.0468 4.3321 1.8332 -14.8409 -16.6954 0.0000 -3.8223 52.8458 10.0977 16.6122 180.0000 -79.6025 -176.9558 -5.2919 -5.1920 -0.0000 10.6707 -0.0000 4.8521 -62.1424 -14.1678 -4.1601 -180.0000 -82.4658 -147.6250 -3.3832 4.2764 0.0000
 9.7546 -6.7643 34.7976 -5.9226 -10.1078 5.6464 4.0751 -14.9718 13.3840 -0.0000 45.9281 0.0000 -0.0000 -5.5097 8.8883 0.0000 -19.6305 -0.0000 -18.3233 -15.4282 -16.1044 -0.0000 87.5529 0.0000 0.0000 9.7115 -3.6769 0.0000 -42.6879 -0.0000 6.3276 -6.1069 40.0819 0.0911 9.7782 16.1870 6.2578 -3.4187 58.2312 4.6857 2.3340 -15.5156 -16.5200 0.0000 -3.8651 53.3442 9.0724 16.6342 180.0000 -80.2334 -176.9858 -6.3619 -5.7605 -0.0000 10.5330 -0.0000 4.3100 -62.0450 -12.3749 -3.7762 180.0000 -83.6867 -147.5920 -3.8475 4.6371 -0.0000
 10.0417 -6.7116 35.0737 -6.8442 -11.6798 7.7148 4.6988 -12.6050 11.6540 -0.0000 44.3965 0.0000 -0.0000 -4.8489 8.4824 0.0000 -20.2772 -0.0000 -18.8152 -17.4067 -16.2630 -0.0000 89.2374 0.0000 0.0000 8.9020 -1.8745 0.0000 -42.4049 -0.0000 6.4347 -6.0353 40.2683 1.4379 11.0102 14.4695 6.2968 -3.2780 58.4039 5.0568 2.6511 -15.8856 -16.4312 0.0000 -3.4450 53.9042 7.1777 16.5658 180.0000 -81.1014 -176.9976 -7.3115 -6.3740 0.0000 10.3838 -0.0000 3.9339 -62.1001 -10.7064 -3.4256 -180.0000 -85.0558 -147.9661 -4.6628 4.5051 0.0000
 10.3007 -6.6719 35.3478 -7.6088 -13.0308 9.9610 5.2461 -10.5853 9.6765 -0.0000 42.8338 0.0000 -0.0000 -4.0742 8.2522 0.0000 -20.6459 -0.0000 -19.5503 -19.6434 -16.3352 -180.0000 88.9880 180.0000 0.0000 8.0089 0.0128 0.0000 -43.7203 -0.0000 6.5356 -5.9919 40.4411 2.6311 11.9389 12.7206 6.3456 -3.1639 58.5672 5.3291 2.8957 -16.4290 -16.2200 0.0000 -3.6884 54.2778 5.7066 16.8700 180.0000 -81.7762 -177.0060 -8.1361 -6.5895 -0.0000 10.2006 -0.0000 3.2898 -61.9356 -9.3701 -3.0476 180.0000 -86.7243 -148.2274 -4.8229 5.0256 -0.0000
 10.5872 -6.6706 35.6427 -8.7192 -15.0586 12.0327 6.6099 -8.0024 7.9560 -0.0000 41.3228 0.0000 -0.0000 -3.4043 7.8288 0.0000 -20.8603 -0.0000 -19.6132 -21.2943 -15.8643 -180.0000 87.3060 180.0000 -0.0000 7.6729 1.0295 0.0000 -43.9479 -0.0000 6.5616 -5.9664 40.6138 4.3939 13.6922 11.0643 6.4002 -3.0497 58.7179 5.6024 2.7806 -17.0388 -16.0967 0.0000 -4.1629 54.5511 3.8679 17.4601 180.0000 -82.5907 -177.1725 -8.9076 -6.8531 0.0000 10.1802 -0.0000 2.6945 -62.2245 -7.9145 -2.8417 180.0000 -88.3323 -148.5327 -4.9402 5.3153 -0.0000
 10.8484 -6.6575 35.9242 -9.6414 -16.9270 14.5164 7.8588 -5.8762 5.8640 -0.0000 39.9561 0.0000 -0.0000 -2.7066 7.5600 0.0000 -20.9456 -0.0000 -20.2341 -22.9989 -15.7476 -180.0000 85.4923 180.0000 0.0000 7.5615 1.5176 0.0000 -44.2793 -0.0000 6.6185 -5.9494 40.7674 6.1527 15.0865 9.0091 6.4587 -2.9311 58.8437 6.0595 2.6383 -17.6621 -15.9862 0.0000 -4.7407 54.9905 2.0354 17.8606 180.0000 -83.4235 -177.1003 -9.4031 -7.2842 -0.0000 10.0869 -0.0000 1.8144 -62.3084 -6.7826 -2.3595 0.0000 -89.8472 31.3713 -5.1733 5.5178 0.0000
 11.0832 -6.6532 36.1896 -10.4280 -18.7483 17.1688 9.1773 -4.0841 3.7500 -0.0000 38.7998 0.0000 0.0000 -1.9606 7.3345 0.0000 -21.2607 -0.0000 -21.2512 -24.7055 -15.7585 -180.0000 83.4665 180.0000 -0.0000 7.0888 1.6695 0.0000 -44.2407 -0.0000 6.6618 -5.9598 40.9126 7.8975 16.3393 6.8216 6.5235 -2.8282 58.9612 6.4392 2.4762 -18.3787 -15.7987 0.0000 -5.5820 55.2830 0.1459 18.4322 180.0000 -84.3776 -177.2371 -9.8052 -7.6437 0.0000 10.2973 -0.0000 1.1158 -62.7894 -5.4515 -1.9847 -0.0000 -87.9573 31.1774 -5.3398 5.2720 0.0000
